<svg width="328" height="72" viewBox="0 0 328 72" fill="none" xmlns="http://www.w3.org/2000/svg">
  <path
    d="M7.54545 53V6.45454H38.3636V14.5682H17.3864V25.6591H36.3182V33.7727H17.3864V53H7.54545ZM55.4514 53.6818C51.9211 53.6818 48.868 52.9318 46.2923 51.4318C43.7317 49.9167 41.7544 47.8106 40.3605 45.1136C38.9665 42.4015 38.2695 39.2576 38.2695 35.6818C38.2695 32.0758 38.9665 28.9242 40.3605 26.2273C41.7544 23.5152 43.7317 21.4091 46.2923 19.9091C48.868 18.3939 51.9211 17.6364 55.4514 17.6364C58.9817 17.6364 62.0271 18.3939 64.5877 19.9091C67.1635 21.4091 69.1483 23.5152 70.5423 26.2273C71.9362 28.9242 72.6332 32.0758 72.6332 35.6818C72.6332 39.2576 71.9362 42.4015 70.5423 45.1136C69.1483 47.8106 67.1635 49.9167 64.5877 51.4318C62.0271 52.9318 58.9817 53.6818 55.4514 53.6818ZM55.4968 46.1818C57.1029 46.1818 58.4438 45.7273 59.5195 44.8182C60.5953 43.8939 61.4059 42.6364 61.9514 41.0455C62.512 39.4545 62.7923 37.6439 62.7923 35.6136C62.7923 33.5833 62.512 31.7727 61.9514 30.1818C61.4059 28.5909 60.5953 27.3333 59.5195 26.4091C58.4438 25.4848 57.1029 25.0227 55.4968 25.0227C53.8756 25.0227 52.512 25.4848 51.4059 26.4091C50.315 27.3333 49.4892 28.5909 48.9286 30.1818C48.3832 31.7727 48.1105 33.5833 48.1105 35.6136C48.1105 37.6439 48.3832 39.4545 48.9286 41.0455C49.4892 42.6364 50.315 43.8939 51.4059 44.8182C52.512 45.7273 53.8756 46.1818 55.4968 46.1818ZM92.1414 53.6818C88.6111 53.6818 85.558 52.9318 82.9823 51.4318C80.4217 49.9167 78.4444 47.8106 77.0505 45.1136C75.6565 42.4015 74.9595 39.2576 74.9595 35.6818C74.9595 32.0758 75.6565 28.9242 77.0505 26.2273C78.4444 23.5152 80.4217 21.4091 82.9823 19.9091C85.558 18.3939 88.6111 17.6364 92.1414 17.6364C95.6717 17.6364 98.7171 18.3939 101.278 19.9091C103.853 21.4091 105.838 23.5152 107.232 26.2273C108.626 28.9242 109.323 32.0758 109.323 35.6818C109.323 39.2576 108.626 42.4015 107.232 45.1136C105.838 47.8106 103.853 49.9167 101.278 51.4318C98.7171 52.9318 95.6717 53.6818 92.1414 53.6818ZM92.1868 46.1818C93.7929 46.1818 95.1338 45.7273 96.2095 44.8182C97.2853 43.8939 98.0959 42.6364 98.6414 41.0455C99.202 39.4545 99.4823 37.6439 99.4823 35.6136C99.4823 33.5833 99.202 31.7727 98.6414 30.1818C98.0959 28.5909 97.2853 27.3333 96.2095 26.4091C95.1338 25.4848 93.7929 25.0227 92.1868 25.0227C90.5656 25.0227 89.202 25.4848 88.0959 26.4091C87.005 27.3333 86.1792 28.5909 85.6186 30.1818C85.0732 31.7727 84.8005 33.5833 84.8005 35.6136C84.8005 37.6439 85.0732 39.4545 85.6186 41.0455C86.1792 42.6364 87.005 43.8939 88.0959 44.8182C89.202 45.7273 90.5656 46.1818 92.1868 46.1818ZM125.922 53.5682C123.271 53.5682 120.869 52.8864 118.718 51.5227C116.581 50.1439 114.884 48.1212 113.627 45.4545C112.384 42.7727 111.763 39.4848 111.763 35.5909C111.763 31.5909 112.407 28.2652 113.695 25.6136C114.983 22.947 116.695 20.9545 118.831 19.6364C120.983 18.303 123.339 17.6364 125.9 17.6364C127.854 17.6364 129.483 17.9697 130.786 18.6364C132.104 19.2879 133.165 20.1061 133.968 21.0909C134.786 22.0606 135.407 23.0152 135.831 23.9545H136.127V6.45454H145.786V53H136.24V47.4091H135.831C135.377 48.3788 134.733 49.3409 133.9 50.2955C133.081 51.2348 132.013 52.0152 130.695 52.6364C129.392 53.2576 127.801 53.5682 125.922 53.5682ZM128.99 45.8636C130.551 45.8636 131.869 45.4394 132.945 44.5909C134.036 43.7273 134.869 42.5227 135.445 40.9773C136.036 39.4318 136.331 37.6212 136.331 35.5455C136.331 33.4697 136.043 31.6667 135.468 30.1364C134.892 28.6061 134.059 27.4242 132.968 26.5909C131.877 25.7576 130.551 25.3409 128.99 25.3409C127.4 25.3409 126.059 25.7727 124.968 26.6364C123.877 27.5 123.051 28.697 122.49 30.2273C121.93 31.7576 121.65 33.5303 121.65 35.5455C121.65 37.5758 121.93 39.3712 122.49 40.9318C123.066 42.4773 123.892 43.6894 124.968 44.5682C126.059 45.4318 127.4 45.8636 128.99 45.8636ZM151.186 53V18.0909H160.868V53H151.186ZM156.05 13.5909C154.61 13.5909 153.376 13.1136 152.345 12.1591C151.33 11.1894 150.822 10.0303 150.822 8.68182C150.822 7.34848 151.33 6.20454 152.345 5.25C153.376 4.2803 154.61 3.79545 156.05 3.79545C157.489 3.79545 158.716 4.2803 159.732 5.25C160.762 6.20454 161.277 7.34848 161.277 8.68182C161.277 10.0303 160.762 11.1894 159.732 12.1591C158.716 13.1136 157.489 13.5909 156.05 13.5909Z"
    fill="url(#paint0_linear_21785_235025)" />
  <path
    d="M198.609 18.0909L186.405 53H175.495L163.291 18.0909H173.518L180.768 43.0682H181.132L188.359 18.0909H198.609ZM215.788 53.6818C212.197 53.6818 209.106 52.9545 206.515 51.5C203.939 50.0303 201.954 47.9545 200.56 45.2727C199.167 42.5758 198.47 39.3864 198.47 35.7045C198.47 32.1136 199.167 28.9621 200.56 26.25C201.954 23.5379 203.917 21.4242 206.447 19.9091C208.992 18.3939 211.977 17.6364 215.401 17.6364C217.704 17.6364 219.848 18.0076 221.833 18.75C223.833 19.4773 225.576 20.5758 227.06 22.0455C228.56 23.5152 229.727 25.3636 230.56 27.5909C231.394 29.803 231.81 32.3939 231.81 35.3636V38.0227H202.333V32.0227H222.697C222.697 30.6288 222.394 29.3939 221.788 28.3182C221.182 27.2424 220.341 26.4015 219.265 25.7955C218.204 25.1742 216.97 24.8636 215.56 24.8636C214.091 24.8636 212.788 25.2045 211.651 25.8864C210.53 26.553 209.651 27.4545 209.015 28.5909C208.379 29.7121 208.053 30.9621 208.038 32.3409V38.0455C208.038 39.7727 208.356 41.2652 208.992 42.5227C209.644 43.7803 210.56 44.75 211.742 45.4318C212.924 46.1136 214.326 46.4545 215.947 46.4545C217.023 46.4545 218.007 46.303 218.901 46C219.795 45.697 220.56 45.2424 221.197 44.6364C221.833 44.0303 222.318 43.2879 222.651 42.4091L231.606 43C231.151 45.1515 230.22 47.0303 228.81 48.6364C227.417 50.2273 225.613 51.4697 223.401 52.3636C221.204 53.2424 218.667 53.6818 215.788 53.6818ZM235.569 53V18.0909H244.955V24.1818H245.319C245.955 22.0152 247.023 20.3788 248.523 19.2727C250.023 18.1515 251.75 17.5909 253.705 17.5909C254.19 17.5909 254.713 17.6212 255.273 17.6818C255.834 17.7424 256.326 17.8258 256.75 17.9318V26.5227C256.296 26.3864 255.667 26.2652 254.864 26.1591C254.061 26.053 253.326 26 252.66 26C251.235 26 249.963 26.3106 248.841 26.9318C247.735 27.5379 246.857 28.3864 246.205 29.4773C245.569 30.5682 245.25 31.8258 245.25 33.25V53H235.569ZM288.242 28.0455L279.378 28.5909C279.226 27.8333 278.901 27.1515 278.401 26.5455C277.901 25.9242 277.242 25.4318 276.423 25.0682C275.62 24.6894 274.658 24.5 273.537 24.5C272.037 24.5 270.772 24.8182 269.742 25.4545C268.711 26.0758 268.196 26.9091 268.196 27.9545C268.196 28.7879 268.529 29.4924 269.196 30.0682C269.863 30.6439 271.007 31.1061 272.628 31.4545L278.946 32.7273C282.34 33.4242 284.87 34.5455 286.537 36.0909C288.204 37.6364 289.037 39.6667 289.037 42.1818C289.037 44.4697 288.363 46.4773 287.014 48.2045C285.681 49.9318 283.848 51.2803 281.514 52.25C279.196 53.2045 276.522 53.6818 273.492 53.6818C268.87 53.6818 265.189 52.7197 262.446 50.7955C259.719 48.8561 258.12 46.2197 257.651 42.8864L267.173 42.3864C267.461 43.7955 268.158 44.8712 269.264 45.6136C270.37 46.3409 271.787 46.7045 273.514 46.7045C275.211 46.7045 276.575 46.3788 277.605 45.7273C278.651 45.0606 279.181 44.2045 279.196 43.1591C279.181 42.2803 278.81 41.5606 278.083 41C277.355 40.4242 276.234 39.9848 274.719 39.6818L268.673 38.4773C265.264 37.7955 262.726 36.6136 261.06 34.9318C259.408 33.25 258.583 31.1061 258.583 28.5C258.583 26.2576 259.189 24.3258 260.401 22.7045C261.628 21.0833 263.348 19.8333 265.56 18.9545C267.787 18.0758 270.393 17.6364 273.378 17.6364C277.787 17.6364 281.257 18.5682 283.787 20.4318C286.333 22.2955 287.817 24.8333 288.242 28.0455ZM308.483 53.6818C304.892 53.6818 301.801 52.9545 299.21 51.5C296.634 50.0303 294.649 47.9545 293.255 45.2727C291.862 42.5758 291.165 39.3864 291.165 35.7045C291.165 32.1136 291.862 28.9621 293.255 26.25C294.649 23.5379 296.612 21.4242 299.142 19.9091C301.687 18.3939 304.672 17.6364 308.096 17.6364C310.399 17.6364 312.543 18.0076 314.528 18.75C316.528 19.4773 318.271 20.5758 319.755 22.0455C321.255 23.5152 322.422 25.3636 323.255 27.5909C324.089 29.803 324.505 32.3939 324.505 35.3636V38.0227H295.028V32.0227H315.392C315.392 30.6288 315.089 29.3939 314.483 28.3182C313.877 27.2424 313.036 26.4015 311.96 25.7955C310.899 25.1742 309.665 24.8636 308.255 24.8636C306.786 24.8636 305.483 25.2045 304.346 25.8864C303.225 26.553 302.346 27.4545 301.71 28.5909C301.074 29.7121 300.748 30.9621 300.733 32.3409V38.0455C300.733 39.7727 301.051 41.2652 301.687 42.5227C302.339 43.7803 303.255 44.75 304.437 45.4318C305.619 46.1136 307.021 46.4545 308.642 46.4545C309.718 46.4545 310.702 46.303 311.596 46C312.49 45.697 313.255 45.2424 313.892 44.6364C314.528 44.0303 315.013 43.2879 315.346 42.4091L324.301 43C323.846 45.1515 322.915 47.0303 321.505 48.6364C320.112 50.2273 318.308 51.4697 316.096 52.3636C313.899 53.2424 311.362 53.6818 308.483 53.6818Z"
    fill="#24292F" />
  <defs>
    <linearGradient id="paint0_linear_21785_235025" x1="3.5" y1="69" x2="161.73" y2="-127.842"
      gradientUnits="userSpaceOnUse">
      <stop stop-color="#FF7E5F" />
      <stop offset="1" stop-color="#FEB47B" />
    </linearGradient>
  </defs>
</svg>
